<svg viewBox="0 0 72 72" xmlns="http://www.w3.org/2000/svg"><g clip-rule="evenodd" fill-rule="evenodd"><path d="m9.8 31.9s3.5-7 11.1-11.6c6.8-4.1 13.7-4.4 15.1-4.4v44.5c-.7.8-3.1 3-7.1 2.6-4.7-.5-5.8-5.1-5.8-5.1s-4.7-.5-8.1-6.4c-3.4-6-2.2-15-2.2-15s-4 .6-4.4-.1 1.4-4.5 1.4-4.5zm26.2-16h.1z" fill="#3e5b5d"/><path d="m35.9 33.1c-1.9 1.8-13.9 13.6-12.8 24.9 0 0 1.2 4.6 5.8 5.1 3.9.4 6.4-1.8 7.1-2.6v-27.4z" fill="#698385"/><path d="m35.9 51.2c-2.7.1-4.9 1.5-4.9 3.2s2.2 3.1 4.9 3.2z" fill="#210800"/><path d="m12.7 42.5c.9 1.4 2.6 3.1 5.8 3.5 5.3.7 6.7-4.2 5.9-7.8-7.3-2.4-11.5-1.7-11.5-1.7s-.4 2.6-.2 6z" fill="#f4e1ce"/><ellipse cx="15.4" cy="39.1" fill="#1a1a18" rx="1.2" ry="1.4"/><path d="m21.5 19.9c-.9-1.3-2.8-3.4-7.2-6.2-7.5-4.9-10.4-4.9-10.4-4.9s-4.1 9.2-.4 16c2.1 3.9 4.7 5.6 6.6 6.3 1.1-1.9 4.6-7.2 10.6-10.8.4-.1.6-.2.8-.4z" fill="#c9c2b8"/><path d="m18.1 22.2c-1.1-1.3-3.1-3.4-6.1-5.3-4.7-3.1-6.6-3.9-6.6-3.9s-3.1 5.4-1.2 9.9c1.3 3 4.5 5.9 6.5 7.4 1.3-2 3.7-5.3 7.4-8.1z" fill="#332c27"/><path d="m23.9 18.7c.9 1.8 2 4.3 3.1 7.8 1.7 5.2 2.8 9.5 3.4 12.7 2.5-3.2 4.8-5.4 5.5-6.1v-17.2c-1.2 0-6.3.3-12 2.8z" fill="#c9c2b8"/><path d="m62.2 31.9s-3.5-7-11.1-11.6c-7.1-4.3-14.3-4.4-15.2-4.4h.1v44.4c.4.5 3 3.2 7.2 2.7 4.7-.5 5.8-5.1 5.8-5.1s4.7-.5 8.1-6.4c3.5-6 2.2-15 2.2-15s4 .6 4.4-.1c.3-.7-1.5-4.5-1.5-4.5z" fill="#2f4b4d"/><path d="m35.9 33c1.5 1.4 14.1 13.5 12.9 25 0 0-1.2 4.6-5.8 5.1-4.2.5-6.7-2.2-7.2-2.7v-27.4z" fill="#597275"/><path d="m35.9 51.2c2.8 0 5 1.5 5 3.2s-2.2 3.2-5 3.2z" fill="#100"/><path d="m59.3 42.5c-.9 1.4-2.6 3.1-5.8 3.5-5.3.7-6.7-4.2-5.9-7.8 7.3-2.4 11.5-1.7 11.5-1.7s.4 2.6.2 6z" fill="#e8d3be"/><ellipse cx="56.6" cy="39.1" fill="#1a1a18" rx="1.2" ry="1.4"/><path d="m50.5 19.9c.9-1.3 2.8-3.4 7.2-6.2 7.5-4.9 10.4-4.9 10.4-4.9s4.1 9.2.4 16c-2.1 3.9-4.7 5.6-6.6 6.3-1.1-1.9-4.6-7.2-10.7-10.8-.3-.1-.5-.2-.7-.4z" fill="#aba198"/><path d="m53.9 22.2c1.1-1.3 3.1-3.4 6.1-5.3 4.7-3.1 6.6-3.9 6.6-3.9s3.1 5.4 1.2 9.9c-1.3 3-4.5 5.9-6.5 7.4-1.3-2-3.7-5.3-7.4-8.1z" fill="#332c27"/><path d="m48.1 18.7c-.9 1.8-2 4.3-3.1 7.8-1.7 5.2-2.8 9.5-3.4 12.7-2.6-3.4-5.1-5.7-5.7-6.3v-17h-.1c.8 0 6.3.1 12.3 2.8z" fill="#b8aea4"/></g></svg>