<svg viewBox="0 0 160 160" xmlns="http://www.w3.org/2000/svg" xmlns:xlink="http://www.w3.org/1999/xlink"><clipPath id="a"><circle cx="80" cy="80" r="60"/></clipPath><g clip-path="url(#a)"><circle cx="80" cy="80" fill="#729fcd" r="60"/><path d="m118.34 129.45.27-16.26.31-.58v-2.7l-.27-.77.34-.51 1.25-.43c-.08 4.41-.13 8.17-.11 9.48.07 3.44-.13 11.67-.13 11.67l11.65.27.2-2.29.41-2.23s3.51-5.54 3.51-5.81a24.31 24.31 0 0 0 -3.11-2.42s-.07-1.22.41-1.22.81-.47 1.21-1.21 1.15-1.15 1.35-1.49.74-10 .74-10l-.87-.88-2.37-.81s0-5.4-.06-11.88-.41-11.13-.68-11.34a35.43 35.43 0 0 0 -4.52-.13s-2.63 0-4.68 0h-2a1.32 1.32 0 0 0 -.61 1l-.06 1.35-1 .07s-.67-16.94-2-22.88-6.52-16.91-16.52-24.4-19-6.88-21-6.88-8.1-.81-18.16 4.65-17.21 18.36-19 25.24a65 65 0 0 0 -1.84 16.81c-.07 4.18-.14 7.22-.2 7.82s-1 .54-1-.4-.07-2-.54-2.23-7-.2-7-.2a35.43 35.43 0 0 0 -4.52.13c-.27.21-.6 4.86-.67 11.34s-.07 11.88-.07 11.88l-2.36.81-.88.88s.54 9.71.74 10 .95.74 1.35 1.49.75 1.21 1.22 1.21.4 1.22.4 1.22a24.24 24.24 0 0 0 -3.1 2.42c0 .27 3.51 5.81 3.51 5.81l.4 2.23.21 2.29 11.67-.27s-.2-8.23-.14-11.67c0-1.25 0-4.74-.1-8.9l1.25-.15.34.51-.27.77v2.7l.3.58.27 16.26 24.19 10.6 14.53.51 13.57-1z" fill="#f3edea"/><path d="m91.22 29.3a42.88 42.88 0 0 1 8.06 13.62c2.61 7.72 3.74 17.94 4.08 22.71s-.56 6.81-4.54 8c-3.69 1-8.29 3.52-8.74 4.54s14.65.45 14.65.45 11.35-.68 11.92-.68a21.82 21.82 0 0 0 2.84-.65l-1-13.09s-.57-7-2-10.9-6.24-10.9-7.61-13.28-10.1-9-10.1-9l-4.09-2 .68-1.25a10.16 10.16 0 0 0 -3.18-2.16c-2-.91-3.06-.45-3.06-.45l-1.14 1.36z" fill="#d8d7d2"/><path d="m123.23 77.78 9.03.23.68 2.04.34 15.5-.38 16.18.04 8.17-11.58-.68-.06-33.04z" fill="#d8d7d2"/><path d="m123.23 77.78v51.77h-3.15l.2-21-1.13.45v3.75l-.34 1.62-.26 15h-5.19v-40.37s-.09-5.19-.26-6.9a34.35 34.35 0 0 0 -.85-4.25l5.28-.34 2-.26v2.47l1.13.45.66-2.07z" fill="#d8d7d2"/><path d="m67.39 56.8-.59 12.42h-8.57a115.13 115.13 0 0 1 1.08-13.16h7.36l.74-.47 4.25-15.32 20.11-.2 1.48 14-.27.94-2.49.2-.14 1.62-.2.81h-22.4z" fill="#3d7cc0"/><path d="m73.01 129.35v-21.39h15.45v21.53" fill="#3d7cc0"/><path d="m58.23 87.24v4.32l8.77.74 2.16-1s3.17-.07 3.92-.2 2.56-.27 2.56-.27v1.62s19.57-.21 19.77-.27 2.43-1 2.77-1.08 4.18-.27 4.18-.27v-4l-4.31.07-3.24-1.08-19.24.4v1.69s-3-.41-3.24-.41l-3.33-.12a15.11 15.11 0 0 0 -2-.88c-.27 0-8.77.74-8.77.74z" fill="#3d7cc0"/><path d="m102.36 101.88v-4.31l-8.77-.75-2.16 1s-3.17.07-3.91.21-2.57.27-2.57.27v-1.61s-19.57.2-19.77.27l-2.77 1.04c-.33.13-4.18.27-4.18.27v4l4.32-.07 3.24 1.08 19.21-.28v-1.68s3 .4 3.24.4l3.31.07a14.92 14.92 0 0 0 2 .88c.31-.04 8.81-.79 8.81-.79z" fill="#3d7cc0"/><path d="m43 56.06 11.07.07s-.81 3.64-1.29 13.09h-11.42" fill="#3d7cc0"/><path d="m57.08 69.36a92.59 92.59 0 0 1 1.08-13.16h-2.76a92.59 92.59 0 0 0 -1.08 13.16z" fill="#3d7cc0"/><path d="m73.48 59.3-.07 10.19 15.53-.2-.41-10.06z" fill="#3d7cc0"/><path d="m72.06 59.37-.13 9.99h-4.12l.41-9.99z" fill="#3d7cc0"/><path d="m59.2 35.21 18.53-.54.5-6.75s-7.88.32-8.19.41a35.69 35.69 0 0 0 -10.84 6.88z" fill="#3d7cc0"/><path d="m84.33 27.85-4.12.07s-.18 6.75-.14 6.89 18.11-.05 18.47 0a31.14 31.14 0 0 0 -5.05-4.17 15.45 15.45 0 0 0 -9.16-2.79z" fill="#3d7cc0"/><path d="m103.29 34.76c-.27 0-2 0-2 0s-7.47-5.62-8-5.89 3.42 1.35 3.83 1.62" fill="#3d7cc0"/><path d="m115.4 68.59h2.42s0-7.7-1.89-13.09h-2.29a72.62 72.62 0 0 1 1.76 13.09z" fill="#3d7cc0"/><path d="m109.68 68.69 4.89-.09a72.26 72.26 0 0 0 -1.77-13.1l-4.64.06a84.25 84.25 0 0 1 1.52 13.13z" fill="#3d7cc0"/><path d="m107.32 55.57-6.17.09s1.15 8.1 1.28 13.16l6.42-.12a83.67 83.67 0 0 0 -1.53-13.13z" fill="#3d7cc0"/><path d="m39.78 81.53-.34 5.33.68 21.69 1.25.11a52.48 52.48 0 0 0 1.63-12.94 96.43 96.43 0 0 0 -1.48-14l-.52-.88z" fill="#acabac"/><path d="m27.18 100.94.45 10.79.91 13.17-1.54-1.36-2.55-4.54 2.84-1.47s.57-.11-.23-1.82a10 10 0 0 0 -2.49-3.06l-.91-9.77 1.47-1.13z" fill="#3d7cc0"/><path d="m133.35 100.94-.45 10.79-.9 13.17 1.59-1.36 2.5-4.55-2.84-1.47s-.57-.11.23-1.82a10 10 0 0 1 2.49-3.06l.91-9.77-1.47-1.13z" fill="#3d7cc0"/><path d="m119.49 80.62a97 97 0 0 0 -1.71 13.38 89.92 89.92 0 0 0 .91 12.37l.46 2.61 1.13-.45.72-14.86.34-7.49-.68-6z" fill="#acabac"/><path d="m120.25 118.2 12.44.34-.94 10.99h-11.67z" fill="#acabac"/><path d="m121.36 119.22-.25 5.88 5.53.17.43-.77.34-4.68-.69-.77z" fill="#747270"/><path d="m39.11 119.22.24 5.88-5.38.17-.42-.77-.33-4.68.67-.77z" fill="#acabac"/><path d="m79.18 123.93a5.23 5.23 0 0 1 -4.73-4.7v-4.74a4.6 4.6 0 0 1 1.06-3.28 4.81 4.81 0 0 1 3.09-1.74 17.45 17.45 0 0 1 1.86-.07 24.48 24.48 0 0 1 3 .2 5.25 5.25 0 0 1 2.83 2 3.46 3.46 0 0 1 .76 2.56v5.84c0 .68-.52 1.57-1.59 2.71s-3.13 1.24-3.23 1.25h-3z" fill="#333232"/><path d="m80.46 109.79a22.31 22.31 0 0 1 2.91.19 5 5 0 0 1 2.6 1.87 3.11 3.11 0 0 1 .69 2.25v5.9a4.4 4.4 0 0 1 -1.47 2.44 5.48 5.48 0 0 1 -3 1.12h-2.19-.51-.32c-.43 0-.87-.06-2.3-.86a4.54 4.54 0 0 1 -2-3.43v-4.77a4.25 4.25 0 0 1 1-3 4.33 4.33 0 0 1 2.85-1.59 15.87 15.87 0 0 1 1.79-.07m0-.78a18.2 18.2 0 0 0 -1.92.08 5.15 5.15 0 0 0 -3.39 1.86 5 5 0 0 0 -1.14 3.53v4.76a5.33 5.33 0 0 0 2.44 4.12 5.22 5.22 0 0 0 2.68.95h3.09c.1 0 2.44-.26 3.48-1.37s1.69-2.18 1.69-3v-5.71a3.83 3.83 0 0 0 -.85-2.87 5.67 5.67 0 0 0 -3-2.15 24.69 24.69 0 0 0 -3.08-.21z" fill="#acabac"/><g fill="#333232"><path d="m28.15 129.67-.2-2.3-.38-2.08c-3.54-5.58-3.54-5.82-3.54-6s0-.54 3.11-2.71a3.42 3.42 0 0 0 -.05-.43c-.7-.09-1.13-.78-1.51-1.47a3.33 3.33 0 0 0 -.8-.9 2.83 2.83 0 0 1 -.54-.57c-.08-.13-.27-.45-.81-10.3v-.23l1.13-1.13 2.12-.72c0-1.33 0-6 .07-11.51.05-4.18.22-11.25.89-11.75.15-.12.41-.32 4.84-.24a56.83 56.83 0 0 1 7.21.24c.54.24.75.92.82 1.75 0-1.28.09-3.42.13-6.47v-1a62.12 62.12 0 0 1 1.82-15.94c1.94-7.32 9.2-20.08 19.29-25.57 9.23-5 15.2-4.82 17.75-4.73h1a33.37 33.37 0 0 1 20.84 7c10.66 7.93 15.66 19.29 16.85 24.75s1.89 19.45 2 22.44h.41l.07 1-1.48.11v-.54c0-.17-.69-17-2-22.78-1.21-5.33-6-16.4-16.4-24.13-9.33-6.95-17.5-6.83-20.19-6.78h-.42-.68c-2.47-.08-8.25-.27-17.22 4.61-9.71 5.28-16.94 18-18.78 24.92a62 62 0 0 0 -1.79 15.68v1c-.08 4.81-.14 7.31-.21 7.88a.91.91 0 0 1 -1 .86 1.19 1.19 0 0 1 -1-1.32c0-1.46-.21-1.72-.25-1.76-.35-.08-3.75-.15-6.79-.15-1.65 0-3.49 0-4.13.06a92.23 92.23 0 0 0 -.54 10.9c-.07 6.47-.07 11.87-.07 11.87v.37l-2.6.89-.63.63c.2 3.56.56 9.15.7 9.67 0 0 .16.12.29.23a4.46 4.46 0 0 1 1 1.19c.14.25.51.94.76.94a.81.81 0 0 1 .57.25 2.27 2.27 0 0 1 .35 1.51v.26l-.21.14c-1.09.76-2.34 1.68-2.79 2.09.43.79 1.95 3.25 3.34 5.44l.07.18.4 2.23.21 2.34z"/><path d="m132.31 129.67-1-.1.2-2.29.48-2.46c1.39-2.19 2.91-4.65 3.34-5.44-.45-.41-1.7-1.33-2.79-2.09l-.21-.14v-.26a2.26 2.26 0 0 1 .35-1.51.81.81 0 0 1 .57-.25c.25 0 .62-.69.76-.94a4.46 4.46 0 0 1 1-1.19 3.48 3.48 0 0 0 .33-.32c.1-.44.46-6 .66-9.58l-.63-.63-2.6-.89v-.37s0-5.4-.07-11.87a90.9 90.9 0 0 0 -.54-10.9c-.64-.07-2.48-.08-4.12-.06 0 0-2.64 0-4.68.05h-1.86a.88.88 0 0 0 -.26.56c0 .56-.17 1.89-1.53 1.89v-1c.23 0 .4 0 .49-.94a1.82 1.82 0 0 1 .88-1.44l.12-.06h2.13 4.68c4.42-.07 4.68.12 4.83.24.67.5.84 7.57.89 11.75.05 5.47.06 10.18.06 11.51l2.13.72 1.13 1.13v.23c-.54 9.85-.73 10.17-.81 10.3a2.83 2.83 0 0 1 -.54.57 3.33 3.33 0 0 0 -.8.9c-.38.69-.81 1.38-1.51 1.47a3.42 3.42 0 0 0 -.05.43c3.11 2.17 3.11 2.42 3.11 2.71s0 .41-3.54 6l-.39 2.13z"/><path d="m32.78 129.62h-.52v-6.14s-.54-4.63-.61-5-.47-24.67-.4-30 .53-10.7.54-10.75h.52s-.48 5.31-.54 10.71c-.07 5.24.33 29.26.4 29.92.07.4.59 4.88.61 5.07z"/><path d="m40 129.36c0-.08-.21-8.28-.14-11.69s-.43-23.67-.65-28.39a60.21 60.21 0 0 1 .41-9l.78.1a57.92 57.92 0 0 0 -.4 8.91c.21 4.67.67 25.06.6 28.43s.14 11.58.14 11.66z"/><path d="m41.56 108.89h-1.05c-.19-.08-.63-.47-.63-2.4h.53a3.48 3.48 0 0 0 .31 1.9h.43a60.18 60.18 0 0 0 1.3-15.11c-.33-8.68-1.73-12.44-1.74-12.47l.49-.19c.06.15 1.43 3.85 1.77 12.64a59.45 59.45 0 0 1 -1.36 15.46z"/><path d="m52.57 134.38-.6-49.85-6.77-.19.4 46.97-.52.01-.41-47.52 7.81.22.61 50.36z"/><path d="m51.62 134-.62-47.62a.59.59 0 0 0 -.58-.57h-3.9a.57.57 0 0 0 -.42.17.52.52 0 0 0 -.17.42l.53 45.22h-.27l-.53-45.22a.84.84 0 0 1 .25-.6.88.88 0 0 1 .61-.25h3.91a.83.83 0 0 1 .83.83l.62 47.62z"/><path d="m41.48 129.46-.27-16.14-.31-.58.03-3 .19-.53-.2-.29.87-.58.49.72-.33.94v2.48l.3.57.27 16.39z"/><path d="m33.56 119.13s-.33 0-.4.5a31.54 31.54 0 0 0 .25 3.43.69.69 0 0 0 .78.65c.64-.06.69-.53.74-.84s.07-.74.07-.74a.21.21 0 0 1 -.19-.29 1 1 0 0 1 .29-.42c.07-.1 0-2.33 0-2.33h-.3s0 2.21 0 2.26a9.45 9.45 0 0 1 -1.19 0s-.11-.79-.14-1.41a1.64 1.64 0 0 1 .09-.81z"/><path d="m36.47 125.6c-1.35 0-2.64-.07-2.66-.07-.39 0-.48-.52-.55-1.18s-.12-2.85-.13-2.94l-.06-1.17a1.76 1.76 0 0 1 .14-1.21.45.45 0 0 1 .36-.17h5.62v.25c.1 1.35.44 5.78.4 6s-1.59.49-3.12.49zm-2.56-.6c.58 0 4.38.08 5.18-.05 0-.69-.23-3.53-.39-5.57h-5.13a2.23 2.23 0 0 0 0 .77l.07 1.2s0 2.21.11 2.9a2.9 2.9 0 0 0 .16.75z"/><path d="m37.16 119.26v2.21a11.93 11.93 0 0 1 -1.89 0 .35.35 0 0 0 .24.12c.13 0 0 .48.05.56a4.79 4.79 0 0 0 1.06 0s.05.44 0 .46h-1.11v.15h1.3a5.19 5.19 0 0 0 0-1c0-.09.25-.07.25-.07s0 .22.09.25a2.89 2.89 0 0 0 .57 0s0 1 .07 1.23.2.51.73.36a.68.68 0 0 0 .57-.64 5.85 5.85 0 0 0 -.05-1.54c-.09 0-1.42 0-1.52 0a16.28 16.28 0 0 1 -.07-2.2z"/><path d="m37.23 121.71-.16.08.02.79-.2.01v.08h.33l.03-.79z"/><path d="m35.19 121.71s.05.87.06.9.22 0 .22 0v.23l.12-.06s0-.58 0-.79a.54.54 0 0 0 0-.32 2.65 2.65 0 0 0 -.08.57c0 .32-.15.25-.15.12v-.68z"/><path d="m35 122.13h.25v.16s-.23 0-.28 0-.17.1-.17 0-.12-.14.2-.16z"/><path d="m27.9 118.55h3.91l.07-.44h-3.92z"/><path d="m32.92 118.04h6.34v.41h-6.34z"/><path d="m24.79 120.41-.37.47.2.91 1.52 2.26.61.2.37.44.37-.44-2.02-3.17z"/><path d="m28.07 125.1a5 5 0 0 0 -.31.91 7.12 7.12 0 0 1 -.3 1l-.61.6v2h1.48l.07-.44.07-1.88z"/><path d="m28 116.53.14 1s.43 5.77.5 5.87 3.85.07 3.85.07l.07.67h-3.72s.21 3.44.11 3.64-.51-.5-.51-.5l-.14-3.08-.23-1-.57-6.1z"/><path d="m24.15 103 2.8-.24-.07-1.35.71.03v1.46l.44 13.63-.78-.88-.4-12.11-2.7.17z"/><path d="m128.22 129.62h-.52v-6.14c0-.22.54-4.7.61-5.11.08-.65.47-24.67.4-29.91-.06-5.4-.53-10.66-.54-10.71h.53s.47 5.34.54 10.75-.34 29.57-.41 30-.6 5-.61 5.05z"/><path d="m120.53 129.36h-.79c0-.08.2-8.26.14-11.66s.39-23.76.61-28.43a58.69 58.69 0 0 0 -.41-8.91l.78-.1a58.73 58.73 0 0 1 .41 9c-.22 4.67-.67 25-.61 28.39s-.13 11.63-.13 11.71z"/><path d="m119.92 108.89h-1v-.19a60 60 0 0 1 -1.36-15.46c.34-8.79 1.72-12.49 1.77-12.64l.49.19s-1.4 3.79-1.74 12.47a60.18 60.18 0 0 0 1.3 15.11h.44a3.59 3.59 0 0 0 .31-1.9h.52c0 1.93-.44 2.32-.63 2.4z"/><path d="m119 129.46-1.04-.02.27-16.39.3-.57v-2.48l-.32-.94.48-.72.87.58-.2.29.22.71v2.82l-.31.58z"/><path d="m126.92 119.13s.33 0 .4.5a31.54 31.54 0 0 1 -.25 3.43.68.68 0 0 1 -.78.65c-.64-.06-.69-.53-.74-.84s-.07-.74-.07-.74a.21.21 0 0 0 .19-.29 1 1 0 0 0 -.29-.42c-.07-.1 0-2.33 0-2.33h.31s0 2.21 0 2.26a9.61 9.61 0 0 0 1.2 0s.1-.79.13-1.41a1.49 1.49 0 0 0 -.1-.81z"/><path d="m124 125.6c-1.51 0-3.09-.09-3.14-.44s.3-4.7.4-6v-.25h5.63a.46.46 0 0 1 .36.17 1.75 1.75 0 0 1 .13 1.21l-.06 1.18c0 .08 0 2.22-.12 2.93s-.17 1.13-.55 1.18c0-.05-1.29.02-2.65.02zm-2.62-.64c.8.13 4.59.08 5.18.05a2.9 2.9 0 0 0 .14-.72c.08-.69.11-2.87.11-2.89l.08-1.24a1.72 1.72 0 0 0 0-.79h-5.1c-.17 2.05-.37 4.88-.4 5.63z"/><path d="m123.32 119.26v2.21a11.93 11.93 0 0 0 1.89 0 .35.35 0 0 1 -.23.12c-.14 0 0 .48 0 .56a4.91 4.91 0 0 1 -1.07 0s0 .44 0 .46h1.12v.15h-1.3a5.19 5.19 0 0 1 0-1c0-.09-.25-.07-.25-.07s0 .22-.09.25a2.89 2.89 0 0 1 -.57 0s0 1-.07 1.23-.2.51-.72.36a.68.68 0 0 1 -.58-.64 5.85 5.85 0 0 1 .05-1.54h1.52a16.28 16.28 0 0 0 .07-2.2z"/><path d="m123.26 121.71.15.08-.02.79.2.01v.08h-.33l-.03-.79z"/><path d="m125.29 121.71s0 .87-.06.9-.22 0-.22 0v.23l-.11-.06s0-.58 0-.79a.54.54 0 0 1 0-.32 2.07 2.07 0 0 1 .08.57c0 .32.15.25.15.12v-.68z"/><path d="m125.48 122.13h-.25v.16s.24 0 .28 0 .17.1.18 0 .11-.14-.21-.16z"/><path d="m132.59 118.55h-3.92l-.07-.44h3.92z"/><path d="m121.21 118.04h6.34v.41h-6.34z"/><path d="m135.69 120.41.37.47-.2.91-1.52 2.26-.61.2-.37.44-.37-.44 2.02-3.17z"/><path d="m132.42 125.1a4.44 4.44 0 0 1 .3.91 7.12 7.12 0 0 0 .3 1l.61.6v2h-1.48l-.07-.44-.07-1.88z"/><path d="m132.45 116.53-.13 1s-.44 5.77-.51 5.87-3.85.07-3.85.07l-.06.67h3.71s-.21 3.44-.1 3.64.5-.5.5-.5l.14-3.08.23-1 .58-6.1z"/><path d="m136.33 103-2.8-.24.07-1.35-.71.03v1.46l-.44 13.63.78-.88.4-12.11 2.7.17z"/><path d="m61.7 79.26c-8.8 0-17.64-.05-18.32-.14l-2.15-.27.12-1 2.17.27c1 .13 23.71.2 32.92.07 8.93-.13 32.62-.54 36.3-.68a66.33 66.33 0 0 0 7-.67l.16 1s-3.52.54-7.08.68-27.39.54-36.32.67c-3.5.05-9.13.07-14.8.07z"/><path d="m75.38 92.7v-1.6c-.54 0-1.71.14-2.26.24-.7.13-3.46.2-3.9.21l-2.17 1-9.05-.75v-4.8h.24c.87-.08 8.52-.74 8.79-.74a10.4 10.4 0 0 1 2.09.87l3.24.07c.24 0 2.15.26 3 .37v-1.67l19.54-.41 3.24 1.08 4.54-.07v4.57h-.26c-1.54 0-3.84.17-4.1.25s-2.55 1-2.77 1.08-6.84.15-19.86.29zm.52-2.17v1.64c5.51-.06 19-.21 19.47-.26l2.71-1.07a39.36 39.36 0 0 1 4-.28v-3.56l-4.08.1-3.23-1.1-18.94.4v1.73h-.29c-1.14-.16-3-.41-3.21-.41l-3.33-.08h-.11a14.46 14.46 0 0 0 -1.89-.88c-.21 0-5.11.42-8.5.72v3.84l8.5.68 2.2-1s3.16-.07 3.87-.2 2.52-.27 2.59-.27z"/><path d="m66.8 86.46h.26v5.84h-.26z"/><path d="m69.03 87.37h.26v3.71h-.26z"/><path d="m75.56 86.16h.37v6.41h-.37z"/><path d="m101.28 86.84h1.05v4.12h-1.05z"/><path d="m65.75 103.63-3.24-1.08-4.54.07v-4.56h.25c1.55-.06 3.85-.17 4.1-.26s2.56-1 2.78-1.08 6.84-.15 19.85-.28h.26v1.56c.54 0 1.71-.15 2.26-.25.71-.13 3.46-.2 3.9-.21l2.17-1 9.09.77v4.79h-.24c-.87.08-8.52.75-8.8.75a10.83 10.83 0 0 1 -2.09-.85l-3.24-.07c-.24 0-2.15-.25-3-.36v1.64zm-3.16-1.63 3.24 1.08 18.93-.4v-1.68h.3c1.14.15 3 .4 3.2.4l3.31.07h.11a15.66 15.66 0 0 0 1.92.86l8.5-.73v-3.79l-8.46-.72-2.2 1s-3.16.06-3.87.19-2.52.27-2.6.28h-.28v-1.56c-5.51.06-19 .21-19.47.27l-2.71 1.06a36.46 36.46 0 0 1 -4 .28v3.53z"/><path d="m93.53 96.82h.26v5.84h-.26z"/><path d="m91.3 98.04h.26v3.71h-.26z"/><path d="m84.67 96.83h.37v6.14h-.37z"/><path d="m58.26 98.17h1.05v4.12h-1.05z"/><path d="m82.32 105.55c-.92 0-1.78 0-2.57 0-8.67-.2-24.73-.2-24.89-.2h-.26l-.41-26.51h.52l.4 26c2.11 0 16.58 0 24.65.21s24.13-.68 26.32-.8l-.2-26h.53l.2 26.5h-.25c-.16-.03-14.84.8-24.04.8z"/><path d="m77.21 94.87c-5.68 0-12.56-.09-17.29-.16-2.71 0-4.85-.07-5-.06l-.08-.51h5.12c7 .11 18.77.27 24.27.09 7.81-.27 21.86-.61 22-.61v.52c-.14 0-14.2.34-22 .61-1.81.1-4.23.12-7.02.12z"/><path d="m70.84 119-16.11-.42v-11.16l16.11.21zm-15.59-1 15.07.39v-10.24l-15.07-.15z"/><path d="m91.29 139.15h-.52v-31.44l15.75-.88v.27l.27 27.28h-.53l-.26-27-14.71.82z"/><path d="m73.27 140.43h-.52v-32.73h15.97v32.47h-.52v-31.95h-14.93z"/><path d="m57.86 83.57-.05-3.26-.99-.04v-1.51h.52v1.01l.99.04.05 3.23 43.96-.54-.03-.58v-2.64l.99-.05v-.87h.52v1.37l-.99.04v2.14l.06 1.11-.28.01z"/><path d="m53 69.48h-11.64v-.48h11.16a101.13 101.13 0 0 1 1.21-12.57l-10.73-.11v-.52l11.39.07-.07.32a92 92 0 0 0 -1.28 13z"/><path d="m57.34 69.62h-3.29v-.27a93.54 93.54 0 0 1 1.09-13.2v-.21h3.3l-.06.31a93.35 93.35 0 0 0 -1.08 13.11zm-2.75-.52h2.24a101.92 101.92 0 0 1 1-12.64h-2.22a98.07 98.07 0 0 0 -1.02 12.64z"/><path d="m60 71.24c-13.21 0-18.77-.07-18.83-.07v-.52c.05 0 5.62.07 18.82.07 14 0 47.35-.29 52.83-.61s6.21-.46 6.24-.47l.11.51s-.7.14-6.32.48-38.85.61-52.85.61z"/><path d="m60 74c-13.21 0-18.77-.06-18.83-.06v-.53c.05 0 5.62.07 18.82.07 14 0 47.35-.28 52.83-.6s6.21-.47 6.24-.47l.11.51s-.7.14-6.32.48-38.85.6-52.85.6z"/><path d="m73.15 69.76.07-10.76h15.56l.43 10.58zm.59-10.2-.06 9.67 15-.2-.38-9.53z"/><path d="m72.19 69.62h-4.65l.46-10.51h4.36zm-4.1-.52h3.58l.13-9.47h-3.33z"/><path d="m67.17 69.61h-9.34v-.4a113.9 113.9 0 0 1 1.09-13.21v-.33h7.58l.51-.32v-.33.12l4.23-15.26 20.76-.21 1.53 14.47-.36 1.28-2.44.2-.11 1.29-.28 1.16h-22.62zm-8.54-.78h7.8l.57-12.53-.24.15h-7.11a116.68 116.68 0 0 0 -1.02 12.38zm9.37-11.54h21.84l.13-.51.15-1.89 2.56-.21.18-.61-1.44-13.61-19.42.2-4.25 15.18-.27.17z"/></g><path d="m59.14 67.69v-.26c0-.83.13-4.33.14-4.47v-.25l6.4-.15-.08 5.08zm.65-4.46c0 .75-.12 3-.12 3.92h5.4l.06-4z" fill="#bdbdb6"/><path d="m66.11 61.66h-6.69l.48-4.88h6.49zm-6.11-.56h5.59l.22-3.86h-5.43z" fill="#bdbdb6"/><path d="m61.71 61.3h-.21v-2.9l-1.02-.9.14-.15 1.09.96z" fill="#bdbdb6"/><path d="m61.6 58.46v-.21l4.32-.04v.21z" fill="#bdbdb6"/><circle cx="62.7" cy="59.2" fill="#bdbdb6" r=".26"/><circle cx="62.7" cy="59.85" fill="#bdbdb6" r=".26"/><circle cx="63.35" cy="59.2" fill="#bdbdb6" r=".26"/><circle cx="63.35" cy="59.85" fill="#bdbdb6" r=".26"/><circle cx="63.98" cy="59.2" fill="#bdbdb6" r=".26"/><circle cx="65.03" cy="59.81" fill="#bdbdb6" r=".26"/><circle cx="64.64" cy="59.2" fill="#bdbdb6" r=".26"/><circle cx="63.98" cy="59.85" fill="#bdbdb6" r=".26"/><circle cx="63.35" cy="60.48" fill="#bdbdb6" r=".26"/><circle cx="63.35" cy="61.08" fill="#bdbdb6" r=".26"/><circle cx="63.98" cy="60.48" fill="#bdbdb6" r=".26"/><path d="m61.05 67.02h-.2v-2.9l-1.02-.9.13-.16 1.09.96z" fill="#bdbdb6"/><path d="m60.95 64.17v-.2l4.32-.05v.21z" fill="#bdbdb6"/><circle cx="62.04" cy="64.91" fill="#bdbdb6" r=".26"/><circle cx="62.04" cy="65.57" fill="#bdbdb6" r=".26"/><circle cx="62.04" cy="66.2" fill="#bdbdb6" r=".26"/><circle cx="62.04" cy="66.86" fill="#bdbdb6" r=".26"/><circle cx="62.7" cy="64.91" fill="#bdbdb6" r=".26"/><circle cx="62.7" cy="65.57" fill="#bdbdb6" r=".26"/><circle cx="63.33" cy="64.91" fill="#bdbdb6" r=".26"/><circle cx="64.38" cy="65.52" fill="#bdbdb6" r=".26"/><circle cx="63.99" cy="64.91" fill="#bdbdb6" r=".26"/><circle cx="63.33" cy="65.57" fill="#bdbdb6" r=".26"/><circle cx="62.7" cy="66.2" fill="#bdbdb6" r=".26"/><circle cx="63.33" cy="66.2" fill="#bdbdb6" r=".26"/><circle cx="62.7" cy="66.83" fill="#bdbdb6" r=".26"/><circle cx="63.33" cy="66.83" fill="#bdbdb6" r=".26"/><path d="m73.55 51.61s2 1.75 6.21 1.42 5.94-4.8 5-7.76-3-4.19-6-4.46-6.82 1.69-7.09 5.53 1.88 5.27 1.88 5.27z" fill="#333232"/><path d="m74.11 51.24s1.79 1.46 5.48 1.18a5 5 0 0 0 4.41-6.42c-.83-2.47-2.68-3.48-5.3-3.71s-6 1.4-6.24 4.6 1.65 4.35 1.65 4.35z" fill="#494949"/><path d="m76.36 46.39a4.48 4.48 0 0 0 2.55.44c1.72-.11 2.44-1.49 2-2.41a2.56 2.56 0 0 0 -2.42-1.42c-1.22-.08-2.8.53-2.91 1.72a1.62 1.62 0 0 0 .78 1.67z" fill="#838383"/><path d="m89.48 39.91h.78v15.37h-.78z" fill="#333232" transform="matrix(.99675082 -.08054686 .08054686 .99675082 -3.54 7.39)"/><path d="m89.43 40.71h2.52v.78h-2.52z" fill="#333232"/><path d="m90.24 50.11h2.7v.78h-2.7z" fill="#333232"/><path d="m90.2 49.12h2.61v.78h-2.61z" fill="#333232"/><path d="m81.27 49.47h.52v13.09h-.52z" fill="#333232" transform="matrix(.00349065 -.99999391 .99999391 .00349065 25.23 137.36)"/><path d="m67.21 56s5.57 0 5.71 0 .18.94.18.94 3.55-.22 10.12-.27 7.13.16 7.13.16l-.2.81h-22.4l-.41-.16z" fill="#333232"/><ellipse cx="82.41" cy="64.34" fill="#eb9682" rx="3.55" ry="3.62"/><path d="m82.41 68.22a3.88 3.88 0 1 1 3.82-3.88 3.85 3.85 0 0 1 -3.82 3.88zm0-7.24a3.36 3.36 0 1 0 3.29 3.36 3.33 3.33 0 0 0 -3.29-3.34z" fill="#333232"/><path d="m94.65 61.75s0-1.93 1.3-2.52a2.8 2.8 0 0 1 3.65 2c.58 1.84-.11 3.51-1.24 3.8a2.87 2.87 0 0 1 -2.83-1c-.36-.63.47.34 1.48.4a1 1 0 0 0 1.1-1.12c-.06-.18-.6.22-1 .16s.67-.25.72-.79a1.29 1.29 0 0 0 -.59-1.31c-.45-.2-1 .75-.9 1.22s.29.52.27.58-.74.25-1-.78a1.38 1.38 0 0 1 1.13-1.58c.31 0-.41-.85-.79-.76a1.24 1.24 0 0 0 -.88.83 8.74 8.74 0 0 1 -.42.87z" fill="#333232"/><path d="m99.15 58.47a23.47 23.47 0 0 0 -2.66-.38c-1.08-.07-2.25.11-3.26 2.09s.52 4.77.9 5.08-1.13-.15-1.66-2.36.54-4.43 1.93-5a4.77 4.77 0 0 1 3.49 0 6.29 6.29 0 0 1 1.26.57z" fill="#333232"/><path d="m96.28 68.34a5.76 5.76 0 0 1 -3.77-1.45 6.31 6.31 0 0 1 -2.15-4.43 5.82 5.82 0 0 1 1.51-4.33 4.87 4.87 0 0 1 3.54-1.56h.06a6 6 0 0 1 4.25 1.59 6.76 6.76 0 0 1 1.46 3.22 6.84 6.84 0 0 1 0 2.62 5.06 5.06 0 0 1 -4.39 4.31 4.36 4.36 0 0 1 -.51.03zm-.81-11.25a4.37 4.37 0 0 0 -3.17 1.4 5.28 5.28 0 0 0 -1.37 3.95 5.82 5.82 0 0 0 2 4.06 5.16 5.16 0 0 0 3.88 1.29 4.58 4.58 0 0 0 3.92-3.85v-.06a6.2 6.2 0 0 0 0-2.43 6.5 6.5 0 0 0 -1.34-2.94 5.55 5.55 0 0 0 -3.92-1.42z" fill="#333232"/><path d="m98.21 65.43a8.34 8.34 0 0 1 -1.53-.18 3.53 3.53 0 0 1 -2-2.24 3.66 3.66 0 0 1 2.08-4.6 3.32 3.32 0 0 1 2.74.35 3.68 3.68 0 0 1 1.71 2.62 3.48 3.48 0 0 1 -1.94 3.88 2.4 2.4 0 0 1 -1.06.17zm-1.39-.69a4.49 4.49 0 0 0 2.19 0 3 3 0 0 0 1.66-3.32 3.26 3.26 0 0 0 -1.47-2.27 2.78 2.78 0 0 0 -2.31-.29 3.13 3.13 0 0 0 -1.74 4 3 3 0 0 0 1.67 1.88z" fill="#333232"/><path d="m94.81 65.87a5.56 5.56 0 0 0 3.12.68 3.23 3.23 0 0 0 2.75-1.78 3.38 3.38 0 0 0 .2-1.08l-.25.11a3.64 3.64 0 0 1 -1.82 2 8.44 8.44 0 0 1 -4 .07z" fill="#333232"/><path d="m97 66.39-1.09-.39a1.14 1.14 0 0 0 .85-.23c.3-.29-.24-.47-.22-.69s1 .36 2.14-.09 1.71-.81 1.95-1.22.29.79-.4 1.33a3.65 3.65 0 0 1 -3.23 1.29z" fill="#333232"/><path d="m97 65.31s-.92.79-1 .82a.8.8 0 0 1 -.32 0s.89-.8 1-.91.32.09.32.09z" fill="#333232"/><path d="m96.59 65-1.23.78c-.06 0-.13-.07-.08-.14s1-.7 1-.74.31.1.31.1z" fill="#333232"/><path d="m96.11 64.6s-1.29.78-1.34.79-.1-.13 0-.17 1.11-.72 1.11-.72z" fill="#333232"/><path d="m95.58 64.3-1.3.62v-.19l1.25-.68z" fill="#333232"/><path d="m95.25 63.79-1.37.61-.1-.21 1.3-.59z" fill="#333232"/><path d="m94.94 63.15-1.45.66-.05-.22 1.33-.63z" fill="#333232"/><path d="m94.76 62.54-1.44.62-.03-.21 1.3-.6z" fill="#333232"/><path d="m94.74 62.02-1.59.52-.03-.22 1.6-.52z" fill="#333232"/><path d="m94.67 61.44-1.48.46-.04-.22 1.51-.45z" fill="#333232"/><path d="m94.81 60.84-1.59.42-.03-.22 1.6-.42z" fill="#333232"/><path d="m95.06 60.26-1.7.32.1-.21 1.58-.33z" fill="#333232"/><path d="m95.25 59.72-1.66.27.2-.27 1.62-.2z" fill="#333232"/><path d="m95.63 59.22-1.65.27.2-.27 1.62-.2z" fill="#333232"/><path d="m96.38 58.78-1.89.12.27-.22 1.78-.1z" fill="#333232"/><path d="m58.51 35.49.49-.49a35.61 35.61 0 0 1 11-6.92c.32-.1 6.39-.35 8.25-.42h.29l-.54 7.26zm19.49-7.3c-3.1.13-7.54.33-7.85.39a36.14 36.14 0 0 0 -10.21 6.35l17.6-.51z" fill="#333232"/><path d="m83.55 35.12c-3.65 0-3.67-.06-3.73-.23s0-.18.13-7v-.25l4.38-.07a15.63 15.63 0 0 1 9.31 2.84s5.36 3.91 5.15 4.49l-.07.19h-.21c-.18 0-3 0-5.88 0-4.33.02-7.19.03-9.08.03zm-3.22-.55h12.29 5.33a46.73 46.73 0 0 0 -4.61-3.69 15.22 15.22 0 0 0 -9-2.74l-3.88.07c-.06 2.29-.14 5.51-.13 6.36z" fill="#333232"/><path d="m101.18 35-.07-.05c-3-2.26-7.59-5.68-8-5.87l-.11-.08-.06-.19v-.16l.14-.07a.5.5 0 0 1 .26 0h.05c1 .29 3.8 1.6 3.82 1.62l-.29.43c-.14-.1-.92-.43-1.73-.78 2.14 1.57 5.43 4 6.15 4.58h2l-.09.52c-.17 0-1.3 0-2 0z" fill="#333232"/><path d="m95.11 29.2-.75-.2c.15-.5.32-1.09.38-1.32a7.45 7.45 0 0 0 -5.36-2.38 6.1 6.1 0 0 0 -1.18 1.7l-.69-.37c.29-.55 1-1.86 1.61-2.07a7.74 7.74 0 0 1 4.54 1.21c1.88 1.3 1.88 1.72 1.88 1.86a8.47 8.47 0 0 1 -.43 1.57z" fill="#333232"/><path d="m70.91 140.17h-.52v-17.58l-6.97-.13v15.92h-.52v-16.45l8.01.15z" fill="#333232"/><path d="m69.52 139.91h-.52v-15.66a.19.19 0 0 0 -.18-.18l-3.82-.07a.25.25 0 0 0 -.16.06.2.2 0 0 0 -.06.15v15h-.53v-15a.73.73 0 0 1 .22-.52.74.74 0 0 1 .54-.22l3.8.09a.7.7 0 0 1 .68.7z" fill="#333232"/><path d="m60.54 123.73-6.07-.14v-1.38l.43-.6h.1 5.51zm-5.7-.5 5.33.13v-1.35h-5.06l-.24.34z" fill="#333232"/><path d="m59.17 123.52-.26-.01.01-.95-4.23-.08v-.26l4.5.08z" fill="#333232"/><path d="m59 122.04h1.44v.26h-1.44z" fill="#333232" transform="matrix(.92213346 -.38687191 .38687191 .92213346 -42.61 32.61)"/><path d="m58.44 123.07-3.16-.05v-.35l3.16.05z" fill="#333232"/><path d="m60.54 127.38-6.07-.15v-1.38l.43-.6h.1 5.51zm-5.7-.5 5.33.12v-1.35h-5.06l-.24.35z" fill="#333232"/><path d="m59.17 127.16h-.26l.01-.96-4.23-.08v-.26l4.5.09z" fill="#333232"/><path d="m59 125.68h1.44v.26h-1.44z" fill="#333232" transform="matrix(.92213346 -.38687191 .38687191 .92213346 -44.02 32.9)"/><path d="m58.44 126.72-3.16-.05v-.36l3.16.05z" fill="#333232"/><path d="m92.57 139.66h-.52v-29.84a.94.94 0 0 1 .9-.93l11.37-.45a.9.9 0 0 1 .63.24.81.81 0 0 1 .27.62l.22 25.42h-.44l-.22-25.41a.33.33 0 0 0 -.11-.25.32.32 0 0 0 -.25-.1l-11.42.45a.42.42 0 0 0 -.4.41z" fill="#333232"/><path d="m115.27 68.72v-.13a72.12 72.12 0 0 0 -1.76-13.07v-.16h2.54v.09c1.88 5.36 1.9 13.06 1.9 13.14v.13zm-1.46-13.1a72.75 72.75 0 0 1 1.71 12.84h2.17c0-1-.16-7.9-1.85-12.83z" fill="#333232"/><path d="m109.55 68.82v-.13a84.59 84.59 0 0 0 -1.55-13.1v-.16l4.9-.06v.1a70.81 70.81 0 0 1 1.8 13.13v.13zm-1.23-13.13a84.87 84.87 0 0 1 1.48 12.87l4.63-.08a70.16 70.16 0 0 0 -1.74-12.85z" fill="#333232"/><path d="m102.3 69v-.13c-.13-5-1.27-13.06-1.28-13.14v-.15l6.42-.09v.11a82.22 82.22 0 0 1 1.56 13.1v.13zm-1-13.16c.15 1.11 1.12 8.25 1.26 12.89l6.15-.1a82.85 82.85 0 0 0 -1.5-12.87z" fill="#333232"/><path d="m77.51 110.14v1h6.66v-1a3.9 3.9 0 0 0 -1.58-.45c-1.21-.25-4.7.11-5.08.45z" fill="#5f5d5e"/><path d="m78.61 109.53h4.45v.99h-4.45z" fill="#333232"/><path d="m77.51 113v1.26h6.66v-1.4a13.1 13.1 0 0 0 -1.67 0c-1.26 0-4.61-.18-4.99.14z" fill="#5f5d5e"/><path d="m78.61 112.87h4.45v.83h-4.45z" fill="#333232"/><path d="m74.65 113.04h12.04l-.05-.34h-11.52z" fill="#5f5d5e"/><path d="m77.51 116.42v1.26h6.66v-1.4a10.9 10.9 0 0 0 -1.67 0c-1.26-.02-4.61-.2-4.99.14z" fill="#5f5d5e"/><path d="m78.61 116.26h4.45v.83h-4.45z" fill="#333232"/><path d="m74.65 116.44h12.04l-.05-.34h-11.52z" fill="#5f5d5e"/><path d="m77.51 119.59v1.26h6.66v-1.4a13.1 13.1 0 0 0 -1.67 0c-1.26-.02-4.61-.2-4.99.14z" fill="#5f5d5e"/><path d="m78.61 119.44h4.45v.83h-4.45z" fill="#333232"/><path d="m74.65 119.61h12.04l-.05-.34h-11.52z" fill="#5f5d5e"/><path d="m58.07 79.53h44.5v.52h-44.5z" fill="#333232" transform="matrix(1 -.01 .01 1 -.93 .95)"/><path d="m80.46 109.79a22.31 22.31 0 0 1 2.91.19 5 5 0 0 1 2.6 1.87 3.11 3.11 0 0 1 .69 2.25v5.9a4.4 4.4 0 0 1 -1.47 2.44 5.48 5.48 0 0 1 -3 1.12h-2.19-.51-.32c-.43 0-.87-.06-2.3-.86a4.54 4.54 0 0 1 -2-3.43v-4.77a4.25 4.25 0 0 1 1-3 4.33 4.33 0 0 1 2.85-1.59 15.87 15.87 0 0 1 1.79-.07m0-.78a18.2 18.2 0 0 0 -1.92.08 5.15 5.15 0 0 0 -3.39 1.86 5 5 0 0 0 -1.14 3.53v4.76a5.33 5.33 0 0 0 2.44 4.12 5.22 5.22 0 0 0 2.68.95h3.09c.1 0 2.44-.26 3.48-1.37s1.69-2.18 1.69-3v-5.71a3.83 3.83 0 0 0 -.85-2.87 5.67 5.67 0 0 0 -3-2.15 24.69 24.69 0 0 0 -3.08-.21z" fill="#acabac"/></g></svg>