<svg enable-background="new 0 0 72 72" height="72" viewBox="0 0 72 72" width="72" xmlns="http://www.w3.org/2000/svg" xmlns:xlink="http://www.w3.org/1999/xlink"><clipPath id="a"><path d="m10.441 32.342c0-3.877 3.144-7.021 7.021-7.021s7.02 3.144 7.02 7.021"/></clipPath><clipPath id="b"><path d="m22.98 39.752c-1.934-9.959 4.57-16.464 14.531-14.53 1.934 9.96-4.57 16.465-14.531 14.53z"/></clipPath><path d="m60.273 32.075c3.168 2.674 1.371 10.501-4.107 10.501-5.48 0-5.48 0-5.48 0l-5.479-5.479" fill="#7a2728"/><circle cx="23.153" cy="11.401" fill="#e5a5a2" r="2.81"/><path d="m23.152 15.263c-2.129 0-3.861-1.732-3.861-3.862s1.732-3.863 3.861-3.863c2.131 0 3.863 1.732 3.863 3.863.001 2.129-1.732 3.862-3.863 3.862zm0-5.619c-.969 0-1.756.788-1.756 1.757 0 .968.787 1.756 1.756 1.756s1.756-.788 1.756-1.756c0-.969-.787-1.757-1.756-1.757z" fill="#e0635d"/><circle cx="37.808" cy="6.334" fill="#e5a5a2" r="2.81"/><path d="m37.807 10.196c-2.129 0-3.861-1.732-3.861-3.862s1.732-3.863 3.861-3.863c2.131 0 3.863 1.733 3.863 3.863s-1.732 3.862-3.863 3.862zm0-5.618c-.967 0-1.756.788-1.756 1.757 0 .968.789 1.756 1.756 1.756.969 0 1.758-.788 1.758-1.756-.001-.969-.79-1.757-1.758-1.757z" fill="#e0635d"/><path d="m21.502 23.199v-5.759c0-6.385 5.176-11.562 11.561-11.562s11.562 5.176 11.562 11.562v5.917" fill="#e0635d"/><path d="m47.041 24.636c0 .659-.535 1.194-1.193 1.194h-25.569c-.66 0-1.193-.535-1.193-1.194v-3.298c0-.659.533-1.194 1.193-1.194h25.568c.658 0 1.193.535 1.193 1.194v3.298z" fill="#8ec95b"/><path d="m38.154 20.144h7.693c.658 0 1.193.535 1.193 1.194v3.298c0 .659-.535 1.194-1.193 1.194h-7.693" fill="#668941"/><path d="m29.832 6.326h3.354v10.523h-3.354z" fill="#7a2728" transform="matrix(.2784 .9605 -.9605 .2784 33.867 -21.9016)"/><path d="m32.092 6.585h3.354v4.671h-3.354z" fill="#7a2728" transform="matrix(.2784 .9605 -.9605 .2784 32.9364 -25.9964)"/><circle cx="33.101" cy="17.19" fill="#de9085" r=".763"/><path d="m34.912 15.825c.131.454-.129.928-.584 1.06l-2.383.69c-.455.131-.928-.13-1.061-.583l-.884-3.057c-.131-.454.131-.928.584-1.059l2.385-.691c.453-.131.928.13 1.059.583z" fill="#de9085"/><path d="m31.707 17.767c-.447 0-.848-.301-.975-.731l-.885-3.056c-.074-.26-.043-.534.088-.771.129-.237.346-.409.605-.484l2.383-.691c.525-.151 1.104.169 1.256.691l.885 3.056c.154.537-.154 1.1-.691 1.255l-2.385.69c-.092.027-.185.041-.281.041zm1.5-5.458c-.066 0-.131.009-.195.028l-2.383.691c-.18.051-.328.17-.418.333s-.111.352-.059.53l.885 3.056c.104.359.502.581.863.476l2.385-.69c.369-.107.582-.495.477-.865l-.885-3.056c-.086-.296-.361-.503-.67-.503z" fill="#de9085"/><path d="m32.199 17.003-.039 1.254-.848-.821" fill="#fff"/><path d="m28.174 12.689c.127.441.588.695 1.029.568.441-.128.695-.589.568-1.03" fill="#fff682"/><path d="m35 16.704-2.275-.057-.911-3.141.45-.13.816 2.812 1.932.048z" fill="#954440"/><path d="m31.677 15.853h.468v2.305h-.468z" fill="#954440" transform="matrix(.5091 .8607 -.8607 .5091 30.3009 -19.1183)"/><path d="m32.77 12.848-.582 1.101-1.083-.62.788-.395z" fill="#484445"/><path d="m25.571 14.705h1.895v2.375h-1.895z" fill="#9d8e67" transform="matrix(.0814 .9967 -.9967 .0814 40.1989 -11.8322)"/><path d="m36.983 11.399h1.895v2.378h-1.895z" fill="#9d8e67" transform="matrix(.4637 .886 -.886 .4637 31.4937 -26.8552)"/><path d="m12.495 28.654-3.744 10.297v1.118s2.508 5.77 5.55 5.77h6.621v-16.717" fill="#e0635d"/><path d="m20.922 29.122-4.977-.277v10.927h4.977z" fill="#a14b46"/><path d="m30.947 56.229v4.134c0 .686-.561 1.248-1.248 1.248h-2.945c-.688 0-1.248-.562-1.248-1.248v-4.134" fill="#eee"/><path d="m26.557 61.338h3.34v8.191h-3.34z" fill="#8ec95b"/><path d="m28.195 61.338h1.701v8.191h-1.701z" fill="#6c8c4b"/><path d="m24.049 69.529c1.615-1.615 4.232-1.615 5.848 0z" fill="#484445"/><path d="m35.178 56.229v4.134c0 .686.562 1.248 1.248 1.248h2.945c.688 0 1.248-.562 1.248-1.248v-4.134" fill="#eee"/><path d="m36.229 61.338h3.342v8.191h-3.342z" fill="#8ec95b"/><path d="m36.229 61.338h1.703v8.191h-1.703z" fill="#6c8c4b"/><path d="m42.076 69.529c-1.613-1.615-4.232-1.615-5.848 0z" fill="#484445"/><path d="m10.441 32.342c0-3.877 3.144-7.021 7.021-7.021s7.02 3.144 7.02 7.021" fill="#8ec95b"/><g clip-path="url(#a)" fill="#ece85b"><path d="m10.198 27.634h11.173v1.404h-11.173z"/><path d="m10.198 29.966h11.173v1.404h-11.173z"/></g><path d="m40.689 29.975c0-3.878 3.143-7.021 7.02-7.021s7.021 3.143 7.021 7.021" fill="#8ec95b"/><path d="m28.254 56.892h9.617c2.41 0 4.588-.994 6.146-2.594h-21.91c1.559 1.599 3.737 2.594 6.147 2.594z" fill="#eee"/><path d="m17.227 32.255c0 2.329 1.164 20.497 2.67 22.042h26.332c1.506-1.546 2.67-19.714 2.67-22.042" fill="#72924e"/><path d="m48.662 25.321h-31.199v7.068c1.504 1.504 5.17 5.678 7.105 7.614 0 0 24.094 7.391 24.094-8.542z" fill="#8ec95b"/><path d="m52.572 26.581h-39.018l4.864-3.627h29.291z" fill="#8ec95b"/><path d="m17.414 32.456-.465-.054 1.121-9.686.35.004 29.363-.002.869 9.69-.466.042-.831-9.263-28.869.001z" fill="#72924e"/><path d="m25.717 40.582v-8.808l1.531-1.531h3.768l1.531 1.531v8.808l-1.531 1.531h-3.768zm3.717-.705.395-.396v-6.605l-.395-.396h-.602l-.396.396v6.605l.396.396z" fill="#ece85b"/><path d="m33.578 40.582v-8.808l1.531-1.531h3.768l1.531 1.531v8.808l-1.531 1.531h-3.768zm3.717-.705.395-.396v-6.605l-.395-.396h-.602l-.396.396v6.605l.396.396z" fill="#ece85b"/><path d="m17.789 28.102h30.533v.468h-30.533z" fill="#72924e"/><path d="m32.587 38.546h.469v26.355h-.469z" fill="#8ec95b" transform="matrix(.1959 .9806 -.9806 .1959 77.1121 9.4047)"/><path d="m27.786 39.785h.468v20.174h-.468z" fill="#8ec95b" transform="matrix(.0668 .9978 -.9978 .0668 75.9084 18.5836)"/><g fill="#e0635d"><path d="m47.445 38.995s-5.77-6.307-5.77-7.514 3.488-2.952 4.428-2.147c.939.806 3.756 4.428 3.756 4.428z"/><path d="m47.982 32.42s-.135-11.942 0-12.613c.133-.671 4.023-1.342 4.293.402.27 1.745-.27 12.613-.27 12.613z"/><path d="m51.873 30.273s3.488-8.454 3.891-8.99 4.16 1.074 3.758 2.281-4.16 9.795-4.16 9.795z"/><path d="m55.578 31.902s3.764-7.282 4.117-7.754c.355-.473 3.883.944 3.529 2.007-.355 1.062-3.662 8.62-3.662 8.62z"/><path d="m47.445 38.995h8.318s4.428-.268 4.428-3.623 0-6.172 0-6.172h-11.673s-1.073 4.965-1.073 9.795z"/></g><path d="m57.914 24.172h.468v5.941h-.468z" fill="#7a2728" transform="matrix(.9184 .3956 -.3956 .9184 15.4786 -20.7869)"/><path d="m60.312 33.642c-2.537-2.958-5.076-4.396-7.768-4.396h-4.717v-.936h4.717c2.98 0 5.754 1.545 8.479 4.722z" fill="#7a2728"/><path d="m58.062 36.078c0 .69-.561 1.249-1.248 1.249h-3.408c-.689 0-1.25-.559-1.25-1.249v-2.737c0-.689.561-1.249 1.25-1.249h1.691c1.443 0 2.965 1.643 2.965 2.78z" fill="#de9085"/><path d="m50.43 38.085-.334-.327c.986-1.013 1.227-2.611.611-4.071-.549-1.299-1.605-2.106-2.762-2.106v-.468c1.348 0 2.57.917 3.193 2.393.688 1.633.411 3.431-.708 4.579z" fill="#7a2728"/><g fill="#de9085"><path d="m51.404 21.603c0 .593-.48 1.074-1.074 1.074h-.4c-.594 0-1.074-.48-1.074-1.074 0-.593.48-1.073 1.074-1.073h.4c.594-.001 1.074.48 1.074 1.073z"/><path d="m58.072 24.341c-.236.449-.793.622-1.242.385l-.305-.16c-.449-.237-.623-.793-.387-1.242.238-.45.793-.622 1.242-.386l.307.161c.45.237.622.793.385 1.242z"/><path d="m61.963 27.293c-.236.45-.793.622-1.242.385l-.305-.161c-.449-.237-.621-.792-.385-1.242.236-.449.793-.622 1.242-.385l.305.161c.449.237.621.793.385 1.242z"/><path d="m46.133 30.738c.346.482.234 1.153-.248 1.498l-.326.234c-.482.345-1.152.235-1.498-.247s-.234-1.152.246-1.498l.328-.235c.482-.344 1.152-.234 1.498.248z"/></g><path d="m22.98 39.752c-1.934-9.959 4.57-16.464 14.531-14.53 1.934 9.96-4.57 16.465-14.531 14.53z" fill="#e20000"/><path d="m37.512 25.223c1.934 9.959-4.57 16.464-14.531 14.53" fill="#610000"/><path clip-path="url(#b)" d="m29.588 27.292h10.136v1.95h-10.136z" fill="#fff" transform="matrix(.7072 .7071 -.7071 .7072 30.1351 -16.2263)"/><path clip-path="url(#b)" d="m20.005 35.074h11.628v1.95h-11.628z" fill="#fff" transform="matrix(.711 .7032 -.7032 .711 32.8098 -7.738)"/><path d="m26.767 34.304h2.892v.434h-2.892z" fill="#f15a24" transform="matrix(.7071 .7071 -.7071 .7071 32.6736 -9.8385)"/><path d="m30.076 34.704-2.045-2.046.688-.687 2.045 2.046zm1.375-1.375-2.047-2.046.688-.687 2.045 2.046z" fill="#f15a24"/><path d="m30.509 30.562h2.893v.434h-2.893z" fill="#f15a24" transform="matrix(.7074 .7068 -.7068 .7074 31.1026 -13.581)"/><path d="m15.375 33.378h20.947v5.148c0 3.042-4.445 7.021-7.957 7.021h-14.064l-4.953-4.953" fill="#e0635d"/><path d="m32.438 34.952c-.488 0-.885-.396-.885-.884v-1.391c0-.488.396-.884.885-.884h1.625c.488 0 .885.396.885.884v1.391c0 .488-.396.884-.885.884z" fill="#a14b46"/><path d="m36.322 38.353v-4.975h-22.71z" fill="#a14b46"/><path d="m35.635 36.537c-.49 0-.885-.396-.885-.885v-1.39c0-.488.395-.884.885-.884h1.623c.488 0 .885.396.885.884v1.39c0 .488-.396.885-.885.885z" fill="#a14b46"/><circle cx="34.505" cy="10.101" fill="#fff682" r=".513"/></svg>