<svg enable-background="new 0 0 72 72" viewBox="0 0 72 72" xmlns="http://www.w3.org/2000/svg"><path d="m9 5.4v24c0 8.1 2.4 16.3 7.1 23.7 4.7 7.3 11.3 12.8 18.7 16.2l1.6.7 1.6-.7c7.4-3.4 13.7-8.9 18.4-16.2 4.6-7.4 6.6-15.6 6.6-23.7v-24c-16-4.5-38-4.5-54 0z" fill="#6b8c85"/><path d="m38.8 16.9-2.8-4.7-2.8 4.8c.9-.2 1.8-.3 2.8-.3.9 0 1.9.1 2.8.2zm-5.7 28 2.9 4.9 2.9-4.9c-.9.2-1.9.3-2.9.3s-1.9-.1-2.9-.3zm-6.6-30.2v5.5c1.5-1.2 3-2.2 4.8-2.8 0 0-4.8-2.7-4.8-2.7zm19.3 32.6v-5.7c-1.5 1.3-3.1 2.2-4.9 2.8zm-20.6-25.9h-5.5l2.8 4.8c.6-1.8 1.5-3.3 2.7-4.8zm21.4 19.1h5.7l-2.8-4.9c-.6 1.8-1.6 3.4-2.9 4.9zm-24.9-9.6c0-.9.1-1.8.3-2.7l-4.8 2.8 4.9 2.8c-.2-.9-.4-1.9-.4-2.9zm33.1.1-4.8-2.8c.2.9.3 1.8.3 2.7 0 1-.1 2-.3 2.9 0 0 4.8-2.8 4.8-2.8zm-35.1 9.5h5.7c-1.3-1.5-2.2-3.1-2.9-4.9 0 0-2.8 4.9-2.8 4.9zm32.6-19.1h-5.5c1.2 1.5 2.2 3 2.8 4.8 0 0 2.7-4.8 2.7-4.8zm-25.8 25.9 4.9-2.9c-1.8-.6-3.4-1.6-4.9-2.8zm19.3-32.6-4.8 2.8c1.8.6 3.3 1.6 4.8 2.8zm-2.8 5.6c-.4-.3-.9-.6-1.4-.8-1.4-.7-3.1-1.2-4.8-1.3h-1.8c-1.7.1-3.3.6-4.8 1.3-.5.2-.9.5-1.4.8-3.4 2.3-5.7 6.2-5.7 10.6 0 7 5.7 12.7 12.7 12.7s12.7-5.7 12.7-12.7c.2-4.4-2-8.3-5.5-10.6z" fill="#ffcf48"/></svg>