<svg viewBox="0 0 72 72" xmlns="http://www.w3.org/2000/svg"><g clip-rule="evenodd" fill-rule="evenodd"><path d="m42.2 12.7c-3.5-.6-5.5-.7-6.2-.8v46.6c.5 0 1.9-.1 3.1-.6 1.5-.6 2.6-1.9 2.6-1.9s2.7 4.6 7.6 3.9 4.6-4.6 4.6-4.6 4.1-.5 6.2-3.1 1.5-4 1.5-4 2.2-4 1.7-10.8c-.5-6.9-2.6-13.6-8-18.4-4.7-4.1-7.2-5.4-13.1-6.3z" fill="#a1876f"/><path d="m36 26.1c1.4 0 8.6.5 13.7 6 5.3 5.8 4.9 18.9 4.2 23.3h-.1v.7c0 .2-.1.4-.1.5-.3 1.2-1.3 3-4.4 3.4-4.5.6-7.1-3.2-7.5-3.8 0 0-4.4-9.1-5.6-16.3v-13.8z" fill="#cfb093"/><path d="m36 39.8c1.2 7.2 5.6 16.3 5.6 16.3s-1 1.2-2.6 1.9c-1.2.5-2.5.6-3.1.6v-18.8z" fill="#a0846b"/><path d="m61.4 48.3s-.6-11.2-4.1-17.5c-3.4-6.2-11.8-10.7-21.3-10.6v5.8c1.4 0 8.6.5 13.7 6 5.3 5.8 4.9 18.9 4.2 23.3h-.1s4.1-.5 6.2-3.1c2-2.4 1.4-3.9 1.4-3.9zm-7.7 7.8c0 .2-.1.4-.1.5 0-.2.1-.4.1-.5zm-2.6 3.3c-.1 0-.1.1-.2.1 0 0-.1 0-.1.1z" fill="#b49d87"/><path d="m36 35.9 6.9-2.4s-1.7-2.9-4.8-3.7c-.9-.2-1.6-.4-2.1-.5z" fill="#221c13"/><path d="m53.2 25.9c-.6 1-2.1 2.6-5.9 1.7-4.2-1-4.6-5-4.6-6.8 4.1 1 7.7 2.8 10.5 5.1z" fill="#f4e1ce"/><path d="m50.9 24.2c0 .1 0 .1-.1.2-.8 1.7-2.6 2.5-4.2 1.7-1.6-.7-2.2-2.6-1.4-4.3 0-.1.1-.1.1-.2 2 .7 3.9 1.6 5.6 2.6z" fill="#3f2100"/><path d="m48.5 14.4s2.4-2 5.2-2.4c2.8-.3 13.4 6 15.4 7.6 2 1.5.4 13.2-1.5 16.1s-4.2-.4-4.1-6.4-3.2-12.8-6.5-15c-2.1-1.4-5.1-.1-7 1-.5-.4-1-.7-1.5-.9z" fill="#774f28"/><path d="m62.2 21.7c-.9.5-2.2 1.3-2.8 2.4-1.1-1.8-2.5-3.5-4.1-5-2-1.8-3.5-3-5.2-3.9 1.8-1.1 4.8-2.4 7-1 1.9 1.3 3.8 4.2 5.1 7.5z" fill="#130000"/><ellipse cx="49.3" cy="24.7" fill="#fff" rx=".9" ry=".8"/><path d="m29.8 12.7c3.5-.6 5.5-.7 6.2-.8v46.6c-.5 0-1.9-.1-3.1-.6-1.5-.6-2.6-1.9-2.6-1.9s-2.7 4.6-7.6 3.9-4.6-4.6-4.6-4.6-4.1-.5-6.2-3.1-1.5-4-1.5-4-2.2-4-1.7-10.8c.5-6.9 2.6-13.6 8-18.4 4.7-4.1 7.2-5.4 13.1-6.3z" fill="#ad937b"/><path d="m36 26.1c-1.4 0-8.6.5-13.7 6-5.3 5.8-4.8 18.9-4.1 23.3h.1v.7c0 .2.1.4.1.5.3 1.2 1.3 3 4.4 3.4 4.5.6 7.1-3.2 7.5-3.8 0 0 4.4-9.1 5.6-16.3v-13.8z" fill="#e8cfb6"/><path d="m10.6 48.3s.6-11.2 4.1-17.5c3.4-6.3 11.9-10.8 21.4-10.6v5.8c-1.4 0-8.6.5-13.7 6-5.4 5.9-4.9 19-4.2 23.4h.1s-4.1-.5-6.2-3.1c-2.1-2.5-1.5-4-1.5-4zm7.7 7.8c0 .2.1.4.1.5 0-.2-.1-.4-.1-.5zm2.6 3.3c.1 0 .1.1.2.1 0 0 .1 0 .1.1z" fill="#c3ac98"/><path d="m36 35.9-6.9-2.4s1.7-2.9 4.8-3.7c.9-.2 1.6-.4 2.1-.5z" fill="#221c13"/><path d="m18.8 25.9c.6 1 2.1 2.6 5.9 1.7 4.2-1 4.6-5 4.6-6.8-4.1 1-7.7 2.8-10.5 5.1z" fill="#f4e1ce"/><path d="m21.1 24.2c0 .1 0 .1.1.2.8 1.7 2.6 2.5 4.2 1.7 1.6-.7 2.2-2.6 1.4-4.3 0-.1-.1-.1-.1-.2-2 .7-3.9 1.6-5.6 2.6z" fill="#3f2100"/><path d="m23.5 14.4s-2.4-2-5.2-2.4c-2.8-.3-13.4 6-15.4 7.6-2 1.5-.4 13.2 1.5 16.1s4.2-.4 4.1-6.4 3.2-12.8 6.5-15c2.1-1.4 5.1-.1 7 1 .5-.4 1-.7 1.5-.9z" fill="#815c35"/><path d="m9.8 21.7c.9.5 2.2 1.3 2.8 2.4 1.1-1.8 2.5-3.5 4.1-5 2-1.8 3.5-3 5.2-3.9-1.8-1.1-4.8-2.4-7-1-1.9 1.3-3.8 4.2-5.1 7.5z" fill="#1f0800"/><ellipse cx="22.7" cy="24.7" fill="#fff" rx=".9" ry=".8"/></g></svg>