<svg viewBox="0 0 72 72" xmlns="http://www.w3.org/2000/svg"><g clip-rule="evenodd" fill-rule="evenodd"><path d="m20.4 13.7s2.9.8 7.5 1.1c3.5.2 6.7.2 8 .1v26c-.8 5.3-2.7 12.8-7 16.1-7.1 5.5-20.9 4.9-24.7-2.2-3.8-7.1 2.4-21.7 4.5-25.6 2.1-4 4-9.6 4-9.6s-4.2-8.5 0-10.4c4.2-2 7.7 4.5 7.7 4.5z" fill="#ce6f00"/><path d="m19 14.7s-1.9-1.7-3.1-2.1-1.4.3-1.2 2.3c.2 2.1.4 2.1.4 2.1s1.2-.4 2.4-1.2 1.5-1.1 1.5-1.1z" fill="#422800"/><path d="m3.2 45.8c2.2-.2 6.3-1.1 10.3-5.5 6-6.5 6.5-9.9 9.6-11.6 3-1.7 5.5-.7 7.9 0 1.8.5 3.9.6 4.9.6v11.7c-.8 5.3-2.7 12.8-7 16.1-7 5.4-20.6 4.9-24.6-1.9-.4-1.2-.8-2.4-1.2-3.5-.2-1.9-.1-3.8.1-5.9z" fill="#f0a055"/><path d="m32.4 33.2s-10.5 5.8-15.2 13.8c-4.1 7-5.6 10.7-.6 13.7 4.4.1 9.1-1.2 12.4-3.7 4.3-3.4 6.2-10.8 7-16.1v-8.1l-1.5-.1z" fill="#f5bd88"/><path d="m35.9 31c-.7.1-1.7.3-2.5.8-1.1.7-1.1 1.4-1.1 1.4s1.2.5 2.6 1l.9.3v-3.5z" fill="#722800"/><path d="m20.8 31.1s.5 1.9 5.2 1.8 5.8-1.4 5.5-2.5c-.2-.8-1.2-1.6-3-2.3-1.7-.3-3.4-.4-5.4.7-1 .5-1.7 1.3-2.4 2.2.1 0 .1.1.1.1z" fill="#f4e1ce"/><path d="m22.7 29c-.2.4-.3.9-.3 1.3 0 .9.4 1.7 1 2.3.7.1 1.5.2 2.5.2 1.1 0 2.1-.1 2.8-.3.6-.6.9-1.4.9-2.3 0-.8-.3-1.6-.9-2.2-.1 0-.2-.1-.3-.1-1.7-.3-3.4-.4-5.4.7 0 .2-.2.3-.3.4z" fill="#133257"/><ellipse cx="26" cy="30.3" fill="#1a1a18" rx=".7" ry="2.2"/><path d="m23.2 59.8c.9.7 2.4 1.6 4.9 2.3 3.7 1.1 6.6 1.1 7.8 1.1h-.1v-22.3c-.8 5.3-2.7 12.8-7 16.1-1.5 1.3-3.4 2.2-5.6 2.8z" fill="#ce6f00"/><g fill="#321800"><circle cx="24.2" cy="48.5" r=".5"/><circle cx="26.3" cy="45" r=".5"/><circle cx="28.7" cy="46.5" r=".5"/><circle cx="26.5" cy="50.4" r=".5"/><circle cx="22.4" cy="51.8" r=".5"/></g><path d="m51.6 13.7s-2.9.8-7.5 1.1c-3.6.3-7 .2-8.1.1v24.9c.7 5.3 2.5 13.5 7.1 17.1 7.1 5.5 20.9 4.9 24.7-2.2s-2.4-21.7-4.5-25.6c-2.1-4-4-9.6-4-9.6s4.2-8.5 0-10.4-7.7 4.6-7.7 4.6z" fill="#be6700"/><path d="m53 14.7s1.9-1.7 3.1-2.1 1.4.3 1.2 2.3-.4 2.1-.4 2.1-1.2-.4-2.4-1.2-1.5-1.1-1.5-1.1z" fill="#422800"/><path d="m68.8 45.8c-2.2-.2-6.3-1.1-10.3-5.5-6-6.5-6.5-9.9-9.6-11.6-3-1.7-5.5-.7-7.9 0-1.9.5-4.1.6-5 .6v10.7c.7 5.3 2.5 13.5 7.1 17.1 7 5.4 20.6 4.9 24.6-1.9.4-1.2.8-2.4 1.2-3.5.2-1.9.1-3.8-.1-5.9z" fill="#dd944b"/><path d="m39.6 33.2s10.5 5.8 15.2 13.8c4.1 7 5.6 10.7.6 13.7-4.4.1-9.1-1.2-12.4-3.7-4.6-3.6-6.4-11.8-7.1-17.1v-7l1.6-.1z" fill="#dba776"/><path d="m35.9 30.9c.6.1 1.8.3 2.6.8 1.1.7 1.1 1.4 1.1 1.4s-1.2.5-2.6 1c-.5.2-.9.3-1.1.4z" fill="#541a00"/><path d="m51.2 31.1s-.5 1.9-5.2 1.8-5.8-1.4-5.5-2.5c.2-.8 1.2-1.6 3-2.3 1.7-.3 3.4-.4 5.4.7 1 .5 1.7 1.3 2.4 2.2-.1 0-.1.1-.1.1z" fill="#f4e1ce"/><path d="m49.3 29c.2.4.3.9.3 1.3 0 .9-.4 1.7-1 2.3-.7.1-1.5.2-2.5.2-1.1 0-2.1-.1-2.8-.3-.6-.6-.9-1.4-.9-2.3 0-.8.3-1.6.9-2.2.1 0 .2-.1.3-.1 1.7-.3 3.4-.4 5.4.7 0 .2.2.3.3.4z" fill="#133257"/><ellipse cx="46" cy="30.3" fill="#1a1a18" rx=".7" ry="2.2"/><path d="m48.8 59.8c-.9.7-2.4 1.6-4.9 2.3-3.8 1.1-6.7 1.1-7.9 1.1v-23.3c.7 5.3 2.5 13.5 7.1 17.1 1.6 1.3 3.5 2.2 5.7 2.8z" fill="#ad5c00"/><g fill="#321800"><circle cx="47.8" cy="48.5" r=".5"/><circle cx="45.7" cy="45" r=".5"/><circle cx="43.3" cy="46.5" r=".5"/><circle cx="45.5" cy="50.4" r=".5"/><circle cx="49.6" cy="51.8" r=".5"/></g><path d="m24.9 22.1c-4.5 0-8.1 3.4-8.1 7.5s3.6 7.5 8.1 7.5 8.1-3.4 8.1-7.5-3.6-7.5-8.1-7.5zm0 1.2c3.8 0 6.8 2.8 6.8 6.3s-3 6.3-6.8 6.3-6.8-2.8-6.8-6.3 3.1-6.3 6.8-6.3z" fill="#595300"/><path d="m17 28h-1.3c-.4 0-.7.3-.7.7s.3.7.7.7h1.3c-.1-.6 0-1 0-1.4z" fill="#423d00"/><path d="m15 28.7c0 .8.4 12.3.2 15.7-.2 3.5-10.4 3.8-11.2-2.7s5.1-13.4 5.1-13.4l.5-1s-3 2.2-5.2 7.3c-2.9 6.8-1.1 14.2 7.7 12.9 2.5-.4 3.8-1.1 3.8-3.6 0-2.2.1-12 .1-14.6h-.4c-.3 0-.6-.3-.6-.6z" fill="#595300"/></g></svg>