<svg enable-background="new 0 0 72 72" viewBox="0 0 72 72" xmlns="http://www.w3.org/2000/svg"><path d="m14.6 59 13.1 10.5c1.4 1.1 3.2 1.4 4.9.7l25.1-10c4.1-1.7 4-7.5-.3-8.9l-20.9-7c-1.1-.4-2.2-.3-3.3.1l-17.4 6.5c-3.4 1.3-4.1 5.8-1.2 8.1z" fill="#bbbdbf"/><path d="m20.7 3.4h4.1v6.9h-4.1z" fill="#bcbec0"/><path d="m22.9 3.4h1.9v6.9h-1.9z" fill="#939598"/><path d="m24 4v7h-2.4v-7zm0-2h-2.4c-1.1 0-2 .9-2 2v7c0 1.1.9 2 2 2h2.4c1.1 0 2-.9 2-2v-7c0-1.1-.9-2-2-2z" fill="#010101"/><path d="m61.6 16.1c-.5 0-.9-.3-1-.8s.2-1.1.8-1.2c.4-.1.7-.4.7-.7.1-.3 0-.7-.2-1.1-.1-.2-.2-.4-.3-.6-.3-.7-.7-1.6-.7-2.5 0-1.3.6-2.5 1.6-3.3.8-.6 1.8-1 3-1.1 1-.1 2 0 2.9.1.6.1 1 .6.9 1.1-.1.6-.5 1-1.1.9-.8-.1-1.7-.2-2.5-.1s-1.5.3-1.9.6c-.5.4-.8 1-.8 1.7 0 .5.3 1.1.6 1.7.1.2.2.4.3.7.4.9.5 1.6.3 2.3-.2 1.1-1.2 2-2.3 2.3-.2 0-.2 0-.3 0z"/><path d="m55.2 9.8c-.3 0-.5-.1-.7-.3-.4-.4-.6-.9-.8-1.4-.1-.5-.1-.9.1-1.3s.6-.8 1-1 .7-.3 1-.3c.3-.1.5-.1.7-.2.3-.1.5-.3.6-.5.1-.4-.4-.9-.6-1-.4-.4-.4-1-.1-1.4.4-.4 1-.4 1.4-.1 1.1 1 1.5 2.1 1.2 3.1-.2.8-.8 1.4-1.7 1.8-.4.2-.7.2-1 .3s-.5.1-.7.2c0 .2.1.3.2.5.4.4.4 1 0 1.4-.1.1-.3.2-.6.2z"/><path d="m11.2 21.6c-.1 0-.3 0-.4-.1-.5-.2-.8-.8-.6-1.3.1-.2 0-.5-.1-.7s-.4-.3-.8-.3c-.2 0-.4-.1-.5-.1-.7-.1-1.5-.2-2.2-.7-.9-.6-1.5-1.7-1.6-2.8-.1-.9.2-1.8.7-2.7.4-.8 1-1.4 1.5-2 .4-.4 1-.5 1.4-.1s.5 1 .1 1.4c-.4.5-.9 1.1-1.2 1.7-.5.5-.6 1.1-.6 1.6s.3 1 .7 1.3c.4.1.9.2 1.5.3.2 0 .4.1.6.1.8.2 1.4.5 1.9.9.7.7.9 1.9.5 2.9-.1.4-.5.6-.9.6z"/><path d="m15.9 11.5h-.1c-.5-.1-1.2-.2-1.9-.4-.8-.3-1.4-.8-1.5-1.5-.2-.9.2-1.6.4-1.9.1-.1.2-.3.3-.4.1-.2.3-.4.4-.6.1-.1.3-.7-.1-1-.2-.2-.4-.3-.8-.3-.4-.1-.9 0-1.3 0-.5 0-1-.4-1-1s.4-1 1-1c.5 0 1.1 0 1.7.1.7.1 1.4.4 1.8.8.9.8 1.1 2.2.5 3.4-.1.3-.3.5-.5.8-.1.1-.2.2-.2.4-.1.2-.1.3-.2.4 0 0 .1 0 .2.1.4 0 1 0 1.4.1.6.1.9.6.9 1.1-.1.5-.5.9-1 .9z"/><path d="m51.7 2.6c-.2-.5-.9-.7-1.7-.4-.1-.6-.4-1-.8-1-.5 0-.9.6-1 1.3-.3.1-.5.2-.6.4-.3.5.3 1.3 1.2 1.8s1.9.4 2.2-.1c0-.2 0-.5-.2-.8.7-.3 1-.8.9-1.2z"/><path d="m66.2 21c-.1-.2-.4-.3-.6-.4-.2-.8-.7-1.3-1.2-1.2s-.7.8-.6 1.6h-.1c-.8-.1-1.5.2-1.6.6s.4.9 1.1 1.1c0 .1.1.3.2.4.4.6 1.4.6 2.2 0 .7-.5 1-1.5.6-2.1z"/><path d="m6.9 5.9c-.3-.2-.9 0-1.3.5 0-.1-.1-.1-.1-.2-.5-.4-1.1-.5-1.4-.2-.2.3-.1.7.2 1.1-.1.1-.2.3-.2.6 0 .6.7 1 1.4.9.8-.1 1.4-.6 1.4-1.2 0-.1 0-.1-.1-.2.3-.5.4-1 .1-1.3z"/><path d="m54.4 16.6c-.2-.3-3.9-7.9-16.6-8.3-.3 0-.7 0-1 0-11.8 0-18.3 7.1-18.6 7.4-.3.4-.5.8-.5 1.3v36c0 .6.3 1.2.8 1.6l11.6 9.2c.4.3.8.4 1.2.4.2 0 .5 0 .7-.1l21.2-8.3c.8-.3 1.3-1 1.3-1.9v-36.4c.1-.3.1-.6-.1-.9z" fill="#1c75bc"/><path d="m17.7 24.9v28.1c0 .6.3 1.2.8 1.6l11.6 9.2c.4.3.8.4 1.2.4.2 0 .5 0 .7-.1l21.2-8.3c.8-.3 1.3-1 1.3-1.9v-3.5c-16.4-1-30.3-11.2-36.8-25.5z" fill="#155d97"/><path d="m48.7 36.8c0-1.2-.9-1.9-2.1-1.7s-2.1 1.3-2.1 2.5.9 1.9 2.1 1.7 2.1-1.3 2.1-2.5z" fill="#be2026"/><path d="m47 34.1c-.2 0-.3 0-.6 0-1.6.3-2.8 1.8-2.8 3.5 0 1.6 1.2 2.8 2.7 2.8h.5c1.6-.3 2.9-1.8 2.9-3.5 0-1.6-1.1-2.8-2.7-2.8zm-.4 5.3c-.1 0-.2 0-.4 0-1 0-1.7-.7-1.7-1.8 0-1.2.9-2.3 2.1-2.5h.4c1 0 1.7.7 1.7 1.8 0 1.2-.9 2.3-2.1 2.5z"/><path d="m31.3 63c-.6 0-1-.5-1-1v-45.2c0-.6.5-1 1-1s1 .5 1 1v45.2c0 .5-.5 1-1 1z" fill="#010101"/><path d="m18 18.2 13.2-1.6s6.7-3 10.2-3.1 12.4 3.1 12.4 3.1-5.9-9.2-17-8.4-18.3 6.2-18.8 10z" fill="#fff"/><path d="m32.3 11.5c3.2 0 6.1.7 8.8 2h.3c3.5-.1 12.4 3.1 12.4 3.1s-5.9-9.2-17-8.4c-9.8.8-16.4 5-18.3 8.6 3.6-3.3 8.5-5.3 13.8-5.3z" fill="#bcbec0"/><path d="m35.2 64.6c-.6 0-1-.5-1-1v-41.3c0-3.2 2.6-5.7 5.7-5.7h5c3.2 0 5.7 2.6 5.7 5.7v35.6c0 .6-.5 1-1 1s-1-.5-1-1v-35.6c0-2.1-1.7-3.7-3.7-3.7h-5c-2.1 0-3.7 1.7-3.7 3.7v41.3c0 .6-.4 1-1 1z" fill="#010101"/><path d="m36.8 10.3h.9c11.6.4 14.8 7.2 14.8 7.2v36.4l-21.2 8.3-11.5-9.2v-36s6-6.7 17-6.7m0-5.1c-13.1 0-20.5 8.1-20.8 8.4-.8.9-1.3 2.1-1.3 3.4v36c0 1.5.7 3 1.9 3.9l11.6 9.2c.9.7 2 1.1 3.1 1.1.6 0 1.2-.1 1.8-.3l21.2-8.3c1.9-.8 3.2-2.6 3.2-4.7v-36.4c0-.7-.2-1.5-.5-2.2-1.7-3.6-7.6-9.7-19.2-10.1-.3 0-.6 0-1 0z"/><g fill="#010101"><path d="m53.9 19.5c-.3 0-.7-.2-.8-.5-.1-.1-2.4-3.5-9-4.3-6.7-.8-12.3 2.6-12.3 2.7-.1.1-.3.1-.4.2l-12.8 1.4c-.5.1-1-.3-1.1-.9s.3-1 .9-1.1l12.6-1.4c1.1-.7 6.6-3.7 13.4-2.9 7.6.9 10.3 5 10.4 5.2.3.5.2 1.1-.3 1.4-.3.1-.5.2-.6.2z"/><path d="m21.8 22c-.5 0-1-.4-1-.9-.1-.6.4-1 .9-1.1l6.5-.6c.6 0 1 .4 1.1.9.1.6-.4 1-.9 1.1l-6.6.6c.1 0 .1 0 0 0z"/><path d="m21.8 25.1c-.5 0-1-.4-1-1s.4-1 1-1l6.5-.3c.6 0 1 .4 1 1s-.4 1-1 1z"/></g><path d="m48.9 39.9-3.9.7c-.3 0-.5-.2-.5-.4v-2.1l4.3-.7z"/><path d="m48.8 37.5v2.3l-3.7.7h-.1c-.2 0-.4-.2-.4-.4v-1.8zm0-1c-.1 0-.1 0-.2 0l-4.2.7c-.5.1-.8.5-.8 1v1.8c0 .8.6 1.4 1.4 1.4h.3l3.7-.7c.5-.1.8-.5.8-1v-2.3c0-.3-.1-.6-.4-.8-.2 0-.4-.1-.6-.1z"/><path d="m42.9 21.1c.6.7 1 1.7 1 2.8 0 2.8-2.2 5.5-5 6-.2 0-.5.1-.7.1.9 1 2.4 1.5 4 1.2 2.8-.6 5-3.2 5-6-.1-2.6-1.9-4.3-4.3-4.1z" fill="#155d97"/></svg>